<?xml version="1.0" encoding="utf-8"?>
<!-- Generator: Adobe Illustrator 21.1.0, SVG Export Plug-In . SVG Version: 6.00 Build 0)  -->
<svg version="1.1" id="Ebene_1" xmlns="http://www.w3.org/2000/svg" xmlns:xlink="http://www.w3.org/1999/xlink" x="0px" y="0px"
	 viewBox="0 0 112.6 213" style="enable-background:new 0 0 112.6 213;" xml:space="preserve">
<style type="text/css">
	.st0{fill:white;}
</style>
<g>
	<path class="st0" d="M112.6,13.2c0-6.2-3-13.2-11.4-13.2c-7,0-10,4.8-12.5,12c-2,5.9-3.5,10.2-6.9,10.2c-3.3,0-5.7-3-5.7-6.6
		c0-5.8,4.8-9.4,13-13.7V1.8L77.3,2.4c-1.1,4.1-2.1,8.4-2.1,12.2c0,6.6,3.3,13.5,11.2,13.5c5.1,0,8.4-2.2,11.4-10.8
		c2.2-6.5,3.9-11.5,7.8-11.5c4.6,0,6.1,3.5,6.1,6.8c0,8.4-10.2,12.9-15.6,15.3V28l14.5-0.9C111.3,23.5,112.6,18.3,112.6,13.2
		 M85,30.5c-7.4,1.1-9.1,5.5-9.1,10.9v16.7H76c1.9-3.7,4.8-3.8,8.6-3.8H103c3.8,0,6.7,0.1,8.6,3.8h0.1V40.2h-0.1
		c-1.9,3.7-4.8,3.8-8.6,3.8H76.7v-0.1c0-3.5,6-5.2,13-4.8L85,30.5z M76.1,74.6c0-3.3,5.5-5.8,13.8-6.1v12
		C80,80.5,76.1,76.9,76.1,74.6 M104.4,69.3c0,4.9-3.6,10.8-13.6,11.2V59c-9.9,0.6-15.6,6.7-15.6,14c0,7.6,6.2,16.6,18.7,16.6
		c12.7,0,18.6-8.3,18.6-15.7c0-7.6-6.8-12.5-12.6-14.3l-0.1,0.1C102.7,62.7,104.4,66.3,104.4,69.3 M110.8,105.4
		c0,5.4-9.3,9.9-21.2,9.9c-11.1,0-12.8-3.6-12.8-8.1v-2h34V105.4z M103.1,95H61.5v14h0.1c1.9-3.7,4.8-3.8,8.6-3.8h5.6v1.7
		c0,8.8,5.5,18.9,19.1,18.9c11.7,0,16.9-7.6,16.9-17.9V91.2h-0.1C109.8,94.9,106.9,95,103.1,95 M103.1,130.7H81.4
		c-3.2,0-6,1.7-6,6.5c0,4.6,2.4,9.4,4.2,12.2h-3.7v14H76c1.9-3.7,4.8-3.8,8.6-3.8H103c3.8,0,6.7,0.1,8.6,3.8h0.1v-17.2h-0.1
		c-1.7,3-4.8,3.2-8.6,3.2H80.6c-1.4-2.2-1.7-4-1.7-5.3c0-2.4,2.2-3.2,4.5-3.2h19.7c3.8,0,6.9,0.4,8.6,3.2h0.1v-17.3h-0.1
		C109.8,130.6,106.9,130.7,103.1,130.7 M96,203l-20.7-8.3l20.7-8.4V203z M100.6,172.3l-40.3,17.3v0.2l41.6,16.8
		c4.8,1.9,7.9,4,9.8,6.4h0.1v-11.2h-0.1c-1.5,4.1-4.4,5.8-9.3,3.9l-5.4-2.2V186l5.3-2.2c4.9-1.9,7.8-0.4,9.4,3.7h0.1v-23h-0.1
		C110.3,167.1,107.2,169.5,100.6,172.3 M50.4,101V83.1h-0.1c-1.9,3.7-4.8,3.8-8.6,3.8H0v14h0.1c1.9-3.7,4.8-3.8,8.6-3.8h32.8
		c3.8,0,6.7,0.1,8.6,3.8L50.4,101L50.4,101z M23.5,101.3c-7.4,1.1-9.1,5.5-9.1,10.9V129h0.1c1.9-3.7,4.8-3.8,8.6-3.8h18.4
		c3.8,0,6.7,0.1,8.6,3.8h0.1v-17.9h-0.1c-1.9,3.7-4.8,3.8-8.6,3.8H15.2v-0.1c0-3.5,6-5.2,13-4.8L23.5,101.3z M47.2,148.3
		c0,2.2-3,4.9-7.3,4.9c-7.4,0-8.5-1.8-14.3-8.9h16.8C45.4,144.3,47.2,146.1,47.2,148.3 M41.6,134.2H22.3c-4.5,0-8.4,2.4-8.4,9.5
		c0,4.2,0.6,8.4,1.2,11.7l8,6l0.1-0.1c-2.3-2.6-8.2-9.1-8.2-13c0-2.7,2.5-4.2,5.5-4.2c4.2,0,6.2,2.5,10.3,9.4
		c3.7,6.3,6,9.4,11.3,9.4c3.8,0,8.6-2.7,8.6-9.1c0-3.2-2.7-7.1-4.7-9.4h4.3v-13.9h-0.1C48.3,134.1,45.4,134.2,41.6,134.2 M39,173.1
		l-20.8,15.2l-7.7-8.6C3.6,172,1.1,166,0.1,163.5H0v20.2h0.1c2.6-5.2,6-7.3,10.2-2.7l13.6,15.3H8.7c-3.8,0-7.1-2-8.6-5.3H0v22h0.1
		c1.5-3.3,4.8-5.4,8.6-5.4h32.8c3.8,0,7.1,2.1,8.6,5.4h0.1v-22h-0.1c-1.5,3.3-4.8,5.3-8.6,5.3H24.8l16.8-11.7c3.5-2.4,6.8-3,8.6,0.1
		h0.1V163h-0.1C48.6,165.7,44.5,169.1,39,173.1"/>
</g>
</svg>
